<svg xmlns="http://www.w3.org/2000/svg" width="21.126" height="21.126" viewBox="0 0 21.126 21.126"><defs><style>.a{fill:rgba(0,123,255,0.35);}.b{fill:#007bff;}</style></defs><g transform="translate(-85 -38.419)"><circle class="a" cx="7.91" cy="7.91" r="7.91" transform="translate(87.658 41.072)"/><g transform="translate(85 38.419)"><path class="b" d="M.685,348.377l.161.064a18.552,18.552,0,0,1,6.175,4.1,18.551,18.551,0,0,1,4.1,6.175l.064.161a9.9,9.9,0,0,1-10.5-10.5m-.514-.644a.4.4,0,0,0-.117.248A10.564,10.564,0,0,0,11.583,359.51a.4.4,0,0,0,.248-.117.408.408,0,0,0,.095-.432q-.092-.247-.191-.491a19.208,19.208,0,0,0-4.246-6.394,19.208,19.208,0,0,0-6.394-4.246q-.245-.1-.491-.191a.408.408,0,0,0-.432.095Z" transform="translate(-0.006 -338.432)"/><g transform="translate(0.562 0)"><path class="b" d="M348.652.68a9.9,9.9,0,0,1,10.49,10.49l-.152-.062a18.552,18.552,0,0,1-6.175-4.1,18.551,18.551,0,0,1-4.1-6.175L348.652.68M348,.168a.411.411,0,0,0-.091.446l.189.466a19.208,19.208,0,0,0,4.247,6.394,19.208,19.208,0,0,0,6.394,4.246l.466.189a.413.413,0,0,0,.565-.345A10.564,10.564,0,0,0,348.258.049.412.412,0,0,0,348,.168Z" transform="translate(-339.257 -0.002)"/><path class="b" d="M24.281,24.156a9.949,9.949,0,0,1,1.777-1.412,9.848,9.848,0,0,1,1.745-.859A21.63,21.63,0,0,0,40.556,34.639a9.847,9.847,0,0,1-.859,1.745,9.983,9.983,0,0,1-3.183,3.185,9.851,9.851,0,0,1-1.739.858A21.629,21.629,0,0,0,22.014,27.666a9.847,9.847,0,0,1,.858-1.739,9.949,9.949,0,0,1,1.409-1.772m-.467-.467a10.519,10.519,0,0,0-2.51,4,.4.4,0,0,0,.246.512A20.964,20.964,0,0,1,34.241,40.891a.4.4,0,0,0,.512.246,10.581,10.581,0,0,0,6.513-6.52.407.407,0,0,0-.246-.512A20.964,20.964,0,0,1,28.336,21.422a.407.407,0,0,0-.512-.246,10.519,10.519,0,0,0-4.011,2.514Z" transform="translate(-21.282 -20.595)"/></g></g></g></svg>