<svg xmlns="http://www.w3.org/2000/svg" width="62.862" height="21.764" viewBox="0 0 62.862 21.764"><defs><style>.a{fill:#2d2d2d;}</style></defs><g transform="translate(-32.143 -3.754)"><path class="a" d="M903.011,116.866a11.384,11.384,0,0,1-.792,4.274,10.1,10.1,0,0,1-5.7,5.728,12.65,12.65,0,0,1-9.006,0,10.112,10.112,0,0,1-5.721-5.728,11.925,11.925,0,0,1,0-8.549,10.166,10.166,0,0,1,2.239-3.431,10.352,10.352,0,0,1,3.482-2.283,11.846,11.846,0,0,1,4.507-.829,11.7,11.7,0,0,1,4.5.836,10.384,10.384,0,0,1,3.467,2.29,10.227,10.227,0,0,1,2.232,3.431A11.346,11.346,0,0,1,903.011,116.866Zm-5.03,0a9.163,9.163,0,0,0-.407-2.828,5.992,5.992,0,0,0-1.17-2.13,5.05,5.05,0,0,0-1.868-1.338,6.431,6.431,0,0,0-2.515-.465,6.525,6.525,0,0,0-2.537.465,5.037,5.037,0,0,0-1.875,1.338,5.987,5.987,0,0,0-1.17,2.13,10.074,10.074,0,0,0,0,5.67,5.985,5.985,0,0,0,1.17,2.13,4.964,4.964,0,0,0,1.875,1.33,6.615,6.615,0,0,0,2.537.458,6.52,6.52,0,0,0,2.515-.458,4.977,4.977,0,0,0,1.868-1.33,5.991,5.991,0,0,0,1.17-2.13A9.214,9.214,0,0,0,897.981,116.866Z" transform="translate(-848.857 -102.18)"/><path class="a" d="M1557.44,102.861v21.764h-4.507V102.861Z" transform="translate(-1496.278 -99.107)"/><path class="a" d="M1756.449,273.437a7.766,7.766,0,0,1,2.74.465,5.961,5.961,0,0,1,2.137,1.352,6.172,6.172,0,0,1,1.4,2.174,7.98,7.98,0,0,1,.5,2.915,6.362,6.362,0,0,1-.044.829,1.312,1.312,0,0,1-.16.509.609.609,0,0,1-.313.262,1.462,1.462,0,0,1-.5.073h-8.694a4.249,4.249,0,0,0,1.148,2.74,3.418,3.418,0,0,0,2.4.851,4.291,4.291,0,0,0,1.352-.189,6.807,6.807,0,0,0,1.01-.422q.443-.232.814-.422a1.692,1.692,0,0,1,.778-.189.931.931,0,0,1,.814.393l1.309,1.614a6.7,6.7,0,0,1-1.5,1.3,7.821,7.821,0,0,1-1.657.785,8.992,8.992,0,0,1-1.7.393,12.767,12.767,0,0,1-1.621.109,8.465,8.465,0,0,1-2.973-.516,6.83,6.83,0,0,1-2.428-1.534,7.235,7.235,0,0,1-1.643-2.53,9.454,9.454,0,0,1-.6-3.518,7.959,7.959,0,0,1,.516-2.864,6.958,6.958,0,0,1,3.823-3.983A7.727,7.727,0,0,1,1756.449,273.437Zm.087,3.111a2.716,2.716,0,0,0-2.021.734,3.825,3.825,0,0,0-.959,2.115h5.626a3.982,3.982,0,0,0-.138-1.047,2.545,2.545,0,0,0-.451-.909,2.3,2.3,0,0,0-.822-.647A2.81,2.81,0,0,0,1756.537,276.548Z" transform="translate(-1685.199 -263.461)"/><path class="a" d="M2189.55,273.437a8.713,8.713,0,0,1,3.126.538,6.861,6.861,0,0,1,2.421,1.541,6.945,6.945,0,0,1,1.57,2.435,8.788,8.788,0,0,1,.56,3.22,8.946,8.946,0,0,1-.56,3.249,6.989,6.989,0,0,1-1.57,2.457,6.89,6.89,0,0,1-2.421,1.556,8.6,8.6,0,0,1-3.126.545,8.7,8.7,0,0,1-3.147-.545,7.022,7.022,0,0,1-2.443-1.556,6.887,6.887,0,0,1-1.584-2.457,8.941,8.941,0,0,1-.56-3.249,8.783,8.783,0,0,1,.56-3.22,6.843,6.843,0,0,1,1.584-2.435,6.993,6.993,0,0,1,2.443-1.541A8.811,8.811,0,0,1,2189.55,273.437Zm0,12.2a2.56,2.56,0,0,0,2.29-1.1,7.935,7.935,0,0,0,0-6.666,2.566,2.566,0,0,0-2.29-1.09,2.629,2.629,0,0,0-2.341,1.09,7.862,7.862,0,0,0,0,6.666A2.623,2.623,0,0,0,2189.55,285.635Z" transform="translate(-2102.221 -263.461)"/></g></svg>